<?xml version="1.0" encoding="utf-8"?>
<!-- Generator: Adobe Illustrator 17.0.2, SVG Export Plug-In . SVG Version: 6.00 Build 0)  -->
<!DOCTYPE svg PUBLIC "-//W3C//DTD SVG 1.1//EN" "http://www.w3.org/Graphics/SVG/1.1/DTD/svg11.dtd">
<svg version="1.1" id="Calque_1" xmlns="http://www.w3.org/2000/svg" xmlns:xlink="http://www.w3.org/1999/xlink" x="0px" y="0px"
	 width="143.128px" height="76.075px" viewBox="0 0 143.128 76.075" enable-background="new 0 0 143.128 76.075"
	 xml:space="preserve">
<path fill="#FFFFFF" d="M84.513,27.745l-0.559-13.017l-1.721-1.781L75.176,2.341L76.21,0H40.516c-4.008,0-5.099,1.219-7.082,2.69
	L21.826,13.095L6.673,17.83C2.253,19.156,0,30.212,0,30.212l3.271,7.858l1.313,0.435c1.083,4.672,5.269,8.169,10.266,8.169
	c4.356,0,8.103-2.654,9.709-6.43h8.51l8.918,7.098c0.776,0.691,2.004,0.141,2.004-0.898v-6.199h14.692
	c1.607,3.775,5.352,6.43,9.707,6.43c5.125,0,9.404-3.677,10.348-8.53l1.353-0.078c4.051,0,5.234-6.125,5.564-8.944
	C85.418,28.901,84.575,27.825,84.513,27.745z M14.85,41.384c-2.897,0-5.256-2.358-5.256-5.257c0-2.897,2.358-5.254,5.256-5.254
	c2.898,0,5.256,2.357,5.256,5.254C20.106,39.025,17.748,41.384,14.85,41.384z M27.765,36.023L27.765,36.023L27.765,36.023
	L27.765,36.023z M37.86,27.273c0.253-0.339,0.737-0.41,1.076-0.157l2.942,2.191c0.339,0.253,0.41,0.737,0.157,1.077
	s-0.737,0.41-1.076,0.157l-2.942-2.191C37.679,28.097,37.608,27.612,37.86,27.273z M43.992,36.023v-5.04
	c0-1.867-0.802-2.862-1.638-3.426L28.177,16.624l0.098-4.613c1.702-1.872,4.311-4.724,5.895-6.375
	c1.836-1.907,3.024-2.861,6.034-2.861c2.568,0,6.041,0,9.562,0l0.778,7.556l1.601,25.692H43.992z M55.397,12.686l-1.02-9.911
	c3.595,0,6.819,0,8.651,0c0.851,0,1.384,0.142,2.169,1.422c0.544,0.887,2.613,5.724,3.607,7.443
	C68.97,11.928,62.944,12.315,55.397,12.686z M68.391,41.384c-2.897,0-5.254-2.358-5.254-5.257c0-2.897,2.357-5.254,5.254-5.254
	c2.898,0,5.257,2.357,5.257,5.254C73.648,39.025,71.29,41.384,68.391,41.384z"/>
<g>
	<path fill="#FFFFFF" d="M92.945,52.623c-1.422-1.449-2.303-3.423-2.303-5.626c0-2.201,0.88-4.186,2.303-5.632
		c1.431-1.441,3.392-2.331,5.572-2.331c0.716,0,1.415,0.095,2.076,0.284l-2.421,6.13c-0.697,0.157-1.228,0.788-1.228,1.548
		c0,0.877,0.7,1.581,1.574,1.581c0.862,0,1.563-0.704,1.563-1.581c0-0.336-0.101-0.654-0.283-0.903l2.423-6.123
		c0.684,0.371,1.316,0.843,1.856,1.394c1.435,1.446,2.31,3.431,2.31,5.632c0,2.204-0.875,4.177-2.31,5.626
		c-1.431,1.438-3.383,2.331-5.559,2.331C96.337,54.954,94.376,54.061,92.945,52.623 M121.965,42.868
		c-0.169,0.03-0.351,0.06-0.528,0.1l1.732-4.695l0.997,0.943C123.225,40.275,122.473,41.511,121.965,42.868 M126.604,52.623
		c-1.206-1.221-2.016-2.816-2.242-4.604l7.781-0.982c0,0,3.469-3.162,5.871-5.366c1.258,1.415,2.024,3.272,2.024,5.326
		c0,2.204-0.879,4.177-2.303,5.626c-1.433,1.438-3.394,2.331-5.57,2.331C129.985,54.954,128.034,54.061,126.604,52.623
		 M98.517,35.912c-6.055,0-10.962,4.964-10.962,11.085c0,6.112,4.908,11.078,10.962,11.078c6.053,0,10.955-4.965,10.955-11.078
		c0-4.359-2.49-8.125-6.101-9.938l0.81-2.052c1.282,0.463,2.349,1.077,3.05,2.456c0.342,0.659,1.691,3.398,2.249,4.539
		c0.18,0.424,0.382,0.874,0.592,1.324c0.637,1.31,1.406,2.683,2.404,3.616c1.345,1.282,2.843,1.835,4.829,1.835h0.095h0.068
		c-0.029,0.383,0.189,0.763,0.563,0.903c0.101,0.041,0.202,0.056,0.31,0.056c0.351,0,0.682-0.222,0.816-0.576l0.18-0.502
		c0.605-0.055,1.253-0.141,1.968-0.243c0.693,5.452,5.293,9.661,10.862,9.661c6.055,0,10.953-4.965,10.962-11.078
		c0-2.888-1.089-5.506-2.873-7.474c0.374-0.362,0.585-0.58,0.569-0.606c-2.067-2.155-4.971-3.5-8.183-3.5
		c-2.747,0-5.261,0.972-7.227,2.601l-1.595-1.51l1.492-4.067l2.061,0.293c0,0,0.119-0.645,0.196-1.038
		c0.077-0.402-0.358-0.843-0.951-0.93c-0.594-0.081-4.481-0.598-5.034-0.675c-0.553-0.081-1.194,0.077-1.309,0.763
		c-0.113,0.679-0.04,0.88-0.04,0.88l3.302,0.463l-4.108,11.166c-1.361,0.26-2.629,0.501-3.145,0.567
		c-0.373,0.038-0.713,0.07-1.035,0.07c-0.823-0.007-1.465-0.173-2.105-0.693c-0.578-0.471-1.154-1.25-1.781-2.492l-7.012-14.677
		l0.209-0.619v-0.018c0.07-0.235,0.288-0.382,0.515-0.382c0.049,0,0.092,0.005,0.146,0.022l2.78,0.825
		c0.459,0.143,0.949-0.124,1.089-0.597c0.13-0.464-0.131-0.961-0.592-1.096l-2.78-0.832c-0.207-0.061-0.432-0.094-0.643-0.094
		c-0.981,0-1.881,0.637-2.177,1.628l-0.063,0.173c-1.109-0.423-8.816-3.497-8.816-3.497s0.257,8.74,4.232,10.894
		c1.502,0.989,2.926,1.526,4.254,1.928l-0.762,1.935C100.724,36.083,99.635,35.912,98.517,35.912"/>
</g>
<path fill="#FFFFFF" d="M65.543,73.971l-9.606-16.638c-0.54-0.935-1.889-0.935-2.429,0l-9.606,16.638
	c-0.54,0.935,0.135,2.104,1.215,2.104h19.211C65.408,76.075,66.083,74.906,65.543,73.971z M55.561,72.755
	c-0.24,0.24-0.531,0.36-0.874,0.36c-0.342,0-0.633-0.12-0.873-0.36s-0.36-0.531-0.36-0.873c0-0.343,0.12-0.634,0.36-0.874
	c0.24-0.239,0.531-0.359,0.873-0.359c0.343,0,0.634,0.12,0.874,0.359c0.24,0.24,0.359,0.531,0.359,0.874
	C55.92,72.224,55.801,72.515,55.561,72.755z M55.803,64.991c-0.078,0.326-0.22,0.859-0.424,1.601
	c-0.124,0.447-0.208,0.819-0.254,1.116c-0.045,0.297-0.117,0.895-0.217,1.793h-0.421c-0.138-1.131-0.23-1.83-0.278-2.096
	c-0.047-0.267-0.143-0.64-0.285-1.12c-0.181-0.613-0.297-1.021-0.35-1.226c-0.08-0.318-0.121-0.568-0.121-0.749
	c0-0.542,0.123-0.926,0.367-1.151c0.245-0.226,0.534-0.339,0.866-0.339c0.323,0,0.61,0.111,0.859,0.335
	c0.25,0.224,0.374,0.592,0.374,1.105C55.92,64.421,55.881,64.666,55.803,64.991z"/>
</svg>
