<?xml version="1.0" encoding="utf-8"?>
<!-- Generator: Adobe Illustrator 17.0.2, SVG Export Plug-In . SVG Version: 6.00 Build 0)  -->
<!DOCTYPE svg PUBLIC "-//W3C//DTD SVG 1.1//EN" "http://www.w3.org/Graphics/SVG/1.1/DTD/svg11.dtd">
<svg version="1.1" id="Calque_1" xmlns="http://www.w3.org/2000/svg" xmlns:xlink="http://www.w3.org/1999/xlink" x="0px" y="0px"
	 width="71.861px" height="84.098px" viewBox="0 0 71.861 84.098" enable-background="new 0 0 71.861 84.098" xml:space="preserve">
<g>
	<path fill="#FFFFFF" d="M69.024,21.141c-2.673-6.187-3.645-6.653-9.542-3.423c-3.42,1.873-6.511,4.346-9.711,6.521
		c1.766-4.95,4.642-9.348,8.834-12.881c2.275-1.918,2.25-2.167-0.109-4.094c-4.058-3.313-8.648-5.543-13.713-6.842
		c-2.862-0.734-3.812-0.423-4.723,2.285c-1.544,4.59-2.888,9.247-4.141,13.309c-1.227-4.104-2.552-8.834-4.071-13.5
		c-0.781-2.399-1.857-2.872-4.211-2.291c-4.924,1.215-9.438,3.32-13.474,6.405c-2.922,2.234-2.943,2.894-0.235,5.292
		c3.881,3.437,6.532,7.659,8.006,12.687c-0.502-0.457-0.998-0.921-1.508-1.37c-3.538-3.11-7.491-5.527-11.922-7.15
		c-1.479-0.542-2.767-0.512-3.634,1.058c-2.767,5.012-4.496,10.342-4.787,16.078c-0.117,2.312-0.447,4.885,2.018,6.273
		c2.491,1.403,4.635-0.068,6.657-1.388c2.789-1.82,5.759-2.868,9.141-2.855c12.035,0.048,24.07,0.047,36.104,0.005
		c3.147-0.011,5.975,0.847,8.604,2.511c0.835,0.528,1.67,1.07,2.557,1.498c3.837,1.852,6.638,0.118,6.694-4.127
		C71.922,30.273,70.952,25.604,69.024,21.141z"/>
	<path fill="#FFFFFF" d="M64.498,50.093c-1.384,0.942-7.343,4.752-12.996,4.577c-3.854-0.119-8.709-0.199-11.168-5.318
		c-1.52-3.162-3.401-3.354-3.956-3.337c0,0-2.348-0.37-4.151,3.381c-2.46,5.119-7.314,5.199-11.168,5.318
		c-5.488,0.169-12.257-4.088-14.152-5.361c-0.048,0.761-0.074,1.529-0.074,2.303c0,17.917,12.917,32.441,28.852,32.441
		s28.852-14.524,28.852-32.441C64.536,51.132,64.521,50.612,64.498,50.093z M49.103,71.604c-2.539,1.269-5.69,1.722-8.895,1.722
		c-7.74,0-15.789-2.642-16.263-2.799c-0.596-0.199-0.918-0.844-0.72-1.439c0.199-0.597,0.844-0.921,1.439-0.721
		c0.156,0.052,15.591,5.116,23.42,1.2c0.563-0.278,1.247-0.052,1.527,0.51C49.894,70.639,49.666,71.323,49.103,71.604z"/>
</g>
</svg>
