<?xml version="1.0" encoding="utf-8"?>
<!-- Generator: Adobe Illustrator 17.0.2, SVG Export Plug-In . SVG Version: 6.00 Build 0)  -->
<!DOCTYPE svg PUBLIC "-//W3C//DTD SVG 1.1//EN" "http://www.w3.org/Graphics/SVG/1.1/DTD/svg11.dtd">
<svg version="1.1" id="Calque_1" xmlns="http://www.w3.org/2000/svg" xmlns:xlink="http://www.w3.org/1999/xlink" x="0px" y="0px"
	 width="123.959px" height="120.463px" viewBox="0 0 123.959 120.463" enable-background="new 0 0 123.959 120.463"
	 xml:space="preserve">
<g>
	<path fill="#FFFFFF" d="M92.975,87.876v31.846c0,0,21.937-7.861,30.946-44.008h-18.784C98.42,75.714,92.975,81.159,92.975,87.876z"
		/>
	<path fill="#FFFFFF" d="M18.783,75.714H-0.001c9.008,36.147,30.945,44.008,30.945,44.008V87.876
		C30.945,81.159,25.5,75.714,18.783,75.714z"/>
	<path fill="#FFFFFF" d="M61.736,0C34.943,0,19.609,15.472,19.609,15.472h84.001C103.61,15.472,88.528,0,61.736,0z"/>
	<rect x="60.559" y="111.284" fill="#FFFFFF" width="2.353" height="9.18"/>
	<rect x="60.559" y="92.925" fill="#FFFFFF" width="2.353" height="9.18"/>
	<rect x="119.405" y="48.678" fill="#FFFFFF" width="4.554" height="2.277"/>
	<rect x="84.066" y="48.678" fill="#FFFFFF" width="8.834" height="2.277"/>
	<rect x="13.388" y="48.678" fill="#FFFFFF" width="8.834" height="2.277"/>
	<rect x="101.736" y="48.678" fill="#FFFFFF" width="8.834" height="2.277"/>
	<rect x="48.726" y="48.678" fill="#FFFFFF" width="8.835" height="2.277"/>
	<rect x="31.058" y="48.678" fill="#FFFFFF" width="8.834" height="2.277"/>
	<rect x="66.396" y="48.678" fill="#FFFFFF" width="8.835" height="2.277"/>
	<rect x="0" y="48.678" fill="#FFFFFF" width="4.554" height="2.277"/>
	<rect x="60.559" y="76.821" fill="#FFFFFF" width="2.353" height="9.18"/>
</g>
</svg>
