<?xml version="1.0" encoding="utf-8"?>
<!-- Generator: Adobe Illustrator 17.0.2, SVG Export Plug-In . SVG Version: 6.00 Build 0)  -->
<!DOCTYPE svg PUBLIC "-//W3C//DTD SVG 1.1//EN" "http://www.w3.org/Graphics/SVG/1.1/DTD/svg11.dtd">
<svg version="1.1" id="Calque_1" xmlns="http://www.w3.org/2000/svg" xmlns:xlink="http://www.w3.org/1999/xlink" x="0px" y="0px"
	 width="102.958px" height="95.188px" viewBox="0 0 102.958 95.188" enable-background="new 0 0 102.958 95.188"
	 xml:space="preserve">
<g>
	<path fill="none" d="M53.178,47.439l22.923-35.671c1.004-1.562-0.118-3.616-1.974-3.616h-44.11c-1.82,0-2.947,1.981-2.018,3.545
		l21.187,35.671C50.076,48.869,52.235,48.907,53.178,47.439z"/>
	<path fill="#FFFFFF" d="M101.783,69.831H0c2.059,2.724,4.338,5.269,6.799,7.627h88.185C97.445,75.1,99.725,72.555,101.783,69.831z"
		/>
	<polygon fill="#FFFFFF" points="14.837,51.405 11.928,54.082 43.598,54.082 42.008,51.405 	"/>
	<path fill="#FFFFFF" d="M47.596,60.813l-0.992-1.671H6.428l-5.456,5.021h101.986l-6.104-5.021H54.931l-1.144,1.78
		C52.324,63.198,48.978,63.14,47.596,60.813z"/>
	<path fill="#FFFFFF" d="M50.894,95.188c13.724,0,26.424-4.352,36.827-11.729H14.062c10.403,7.378,23.103,11.729,36.827,11.729
		H50.894z"/>
	<polygon fill="#FFFFFF" points="90.703,54.082 87.448,51.405 59.903,51.405 58.183,54.082 	"/>
	<path fill="#FFFFFF" d="M47.596,60.813c1.382,2.326,4.728,2.385,6.191,0.109l1.144-1.78l3.252-5.061l1.72-2.677l29.43-45.798
		C90.89,3.185,89.151,0,86.271,0H17.871c-2.822,0-4.57,3.072-3.129,5.498l27.266,45.907l1.59,2.677l3.006,5.061L47.596,60.813z
		 M30.016,8.152h44.11c1.856,0,2.978,2.054,1.974,3.616L53.178,47.439c-0.943,1.468-3.101,1.43-3.992-0.07L27.998,11.698
		C27.069,10.133,28.197,8.152,30.016,8.152z"/>
</g>
</svg>
