<?xml version="1.0" encoding="utf-8"?>
<!-- Generator: Adobe Illustrator 17.0.2, SVG Export Plug-In . SVG Version: 6.00 Build 0)  -->
<!DOCTYPE svg PUBLIC "-//W3C//DTD SVG 1.1//EN" "http://www.w3.org/Graphics/SVG/1.1/DTD/svg11.dtd">
<svg version="1.1" xmlns="http://www.w3.org/2000/svg" xmlns:xlink="http://www.w3.org/1999/xlink" x="0px" y="0px"
	 width="111.833px" height="110.355px" viewBox="0 0 111.833 110.355" enable-background="new 0 0 111.833 110.355"
	 xml:space="preserve">
<g id="Calque_2">
</g>
<g id="Calque_1">
	<path fill="none" stroke="#053955" stroke-width="1.1385" stroke-miterlimit="10" d="M87.179,101.724"/>
	<path fill="none" stroke="#053955" stroke-width="1.1385" stroke-miterlimit="10" d="M101.979,82.654"/>
	<g>
		<path fill="none" d="M115.685,19.784"/>
	</g>
	<g>
		<path fill="none" d="M-3.548,19.784"/>
	</g>
	<g>
		<path fill="none" d="M45.406,62.816l-2.937-7.961l-1.691,1.6c1.596,1.796,2.872,3.892,3.733,6.192
			C44.798,62.697,45.107,62.749,45.406,62.816z"/>
		<path fill="none" d="M26.833,88.411L18.67,98.17l0.873,0.73l8.802-10.523c-0.375,0.023-0.749,0.053-1.13,0.053
			C27.086,88.431,26.962,88.414,26.833,88.411z"/>
		<path fill="none" d="M40.019,83.222h31.437c-0.376-0.363-0.734-0.745-1.079-1.139H41.104
			C40.758,82.479,40.396,82.858,40.019,83.222z"/>
		<path fill="none" d="M74.843,79.188c2.427,2.438,5.736,3.952,9.426,3.952c3.221,0,6.159-1.151,8.467-3.06l-8.571-7.762
			c-1.279-0.051-2.319-1.011-2.506-2.269l-8.568-7.759c-1.369,2.119-2.165,4.639-2.165,7.359
			C70.926,73.385,72.409,76.73,74.843,79.188z"/>
		<path fill="none" d="M13.321,82.084H4.355v1.139H14.4C14.024,82.859,13.666,82.478,13.321,82.084z"/>
		<path fill="none" d="M64.677,63.422c-1.081,2.221-2.384,4.55-4.075,6.131c-2.28,2.173-4.82,3.112-8.187,3.112h-0.162h-0.116
			c0.049,0.649-0.32,1.293-0.955,1.531c-0.171,0.069-0.342,0.095-0.525,0.095c-0.595,0-1.157-0.376-1.383-0.977l-0.305-0.852
			c-1.026-0.093-2.125-0.24-3.337-0.412c-0.247,1.943-0.802,3.785-1.588,5.495h23.39c-1.106-2.404-1.74-5.073-1.74-7.897
			c0-4.075,1.289-7.841,3.467-10.918l-1.574-1.426c-0.72,1.458-1.46,2.964-1.905,3.873C65.376,61.896,65.034,62.659,64.677,63.422z"
			/>
		<path fill="none" d="M76.039,52.798l-1.374-3.48c-2.173,0.784-3.984,1.825-5.171,4.164c-0.164,0.317-0.469,0.922-0.838,1.664
			l1.963,1.777C72.157,55.236,73.987,53.827,76.039,52.798z"/>
		<path fill="none" d="M93.717,60.1c-2.427-2.444-5.751-3.953-9.448-3.953c-1.215,0-2.399,0.162-3.52,0.482l4.106,10.394
			c1.181,0.266,2.082,1.337,2.082,2.625c0,0.595-0.196,1.138-0.519,1.581l7.965,7.213c2.013-2.371,3.238-5.42,3.238-8.794
			C97.621,65.916,96.128,62.551,93.717,60.1z"/>
		<path fill="none" d="M74.843,60.1c-0.113,0.114-0.213,0.239-0.322,0.357l7.085,6.416l-3.616-9.137
			C76.83,58.364,75.758,59.165,74.843,60.1z"/>
		<path fill="none" d="M27.215,83.139c3.697,0,7.006-1.514,9.43-3.952c2.045-2.07,3.419-4.774,3.801-7.806l-13.193-1.665
			c0,0-5.882-5.362-9.955-9.098c-2.134,2.399-3.431,5.548-3.431,9.03c0,3.736,1.49,7.082,3.904,9.539
			C20.2,81.625,23.525,83.139,27.215,83.139z"/>
		<path fill="#FFFFFF" d="M40.019,83.222c-3.077,2.973-7.154,4.879-11.673,5.155L19.543,98.9l-0.873-0.73l8.163-9.758
			c-4.823-0.099-9.185-2.054-12.433-5.189H4.355v-1.139h8.966c-1.187-1.354-2.18-2.879-2.944-4.539H0.214v1.582
			c11.392,18.722,31.989,31.227,55.507,31.228h0.005c1.693,0,3.366-0.085,5.027-0.213l18.643-22.387
			c-3.024-0.831-5.739-2.407-7.94-4.533H40.019z"/>
		<path fill="#FFFFFF" d="M41.104,82.084h29.273c-1.186-1.354-2.179-2.879-2.942-4.539h-23.39
			C43.281,79.205,42.289,80.73,41.104,82.084z"/>
		<path fill="#FFFFFF" d="M69.494,53.481c1.188-2.338,2.998-3.379,5.171-4.164l1.374,3.48c-2.052,1.03-3.882,2.438-5.42,4.125
			l3.902,3.533c0.109-0.118,0.209-0.243,0.322-0.357c0.916-0.934,1.987-1.735,3.147-2.364l3.616,9.137l4.812,4.358
			c0.323-0.443,0.519-0.986,0.519-1.581c0-1.288-0.901-2.36-2.082-2.625l-4.106-10.394c1.12-0.321,2.305-0.482,3.52-0.482
			c3.697,0,7.021,1.51,9.448,3.953c2.412,2.451,3.904,5.817,3.904,9.549c0,3.375-1.226,6.424-3.238,8.794l3.892,3.524
			c1.142-1.324,2.098-2.81,2.84-4.422c1.107-2.404,1.742-5.073,1.742-7.897c0-10.379-8.321-18.795-18.588-18.795
			c-1.896,0-3.742,0.29-5.473,0.841l-1.291-3.282c2.253-0.682,4.667-1.592,7.213-3.269c6.741-3.651,7.176-18.471,7.176-18.471
			s-13.068,5.212-14.948,5.929l-0.107-0.293c-0.501-1.679-2.027-2.76-3.691-2.76c-0.357,0-0.739,0.055-1.09,0.159l-4.713,1.41
			c-0.781,0.229-1.224,1.072-1.004,1.859c0.238,0.801,1.068,1.255,1.847,1.012l4.713-1.4c0.092-0.028,0.165-0.037,0.247-0.037
			c0.385,0,0.754,0.249,0.873,0.647v0.03l0.354,1.05L65.69,52.459l2.967,2.687C69.026,54.404,69.33,53.798,69.494,53.481z"/>
		<path fill="#FFFFFF" d="M84.165,72.318l-2.506-2.269C81.846,71.307,82.886,72.267,84.165,72.318z"/>
		<path fill="#FFFFFF" d="M14.4,83.222c3.248,3.135,7.61,5.089,12.433,5.189c0.128,0.003,0.253,0.02,0.382,0.02
			c0.381,0,0.755-0.03,1.13-0.053c4.519-0.276,8.596-2.183,11.673-5.155c0.377-0.364,0.739-0.743,1.085-1.139
			c1.185-1.354,2.177-2.879,2.94-4.539c0.786-1.71,1.341-3.552,1.588-5.495c1.212,0.172,2.311,0.319,3.337,0.412l0.305,0.852
			c0.226,0.601,0.788,0.977,1.383,0.977c0.183,0,0.354-0.026,0.525-0.095c0.635-0.238,1.004-0.882,0.955-1.531h0.116h0.162
			c3.367,0,5.907-0.939,8.187-3.112c1.691-1.581,2.995-3.91,4.075-6.131c0.357-0.763,0.699-1.526,1.004-2.245
			c0.445-0.908,1.185-2.414,1.905-3.873l-2.94-2.662l-2.161,4.523c-1.062,2.105-2.039,3.427-3.019,4.225
			c-1.084,0.882-2.173,1.163-3.569,1.175c-0.546,0-1.123-0.055-1.755-0.119c-0.876-0.113-3.025-0.52-5.333-0.962l-6.966-18.932
			l5.598-0.784c0,0,0.125-0.342-0.067-1.493c-0.195-1.162-1.282-1.43-2.219-1.293c-0.937,0.131-7.528,1.007-8.535,1.145
			c-1.004,0.148-1.743,0.896-1.612,1.577c0.131,0.667,0.333,1.76,0.333,1.76l3.495-0.496l2.531,6.896l-2.705,2.561
			c-3.333-2.763-7.595-4.411-12.253-4.411c-5.446,0-10.37,2.28-13.874,5.934c-0.027,0.044,0.33,0.414,0.965,1.027
			c-3.025,3.336-4.872,7.777-4.872,12.673c0.004,2.824,0.641,5.493,1.749,7.897c0.764,1.66,1.758,3.184,2.944,4.539
			C13.666,82.478,14.024,82.859,14.4,83.222z M42.469,54.855l2.937,7.961c-0.299-0.067-0.608-0.119-0.894-0.169
			c-0.861-2.3-2.137-4.396-3.733-6.192L42.469,54.855z M17.297,60.618c4.072,3.736,9.955,9.098,9.955,9.098l13.193,1.665
			c-0.382,3.031-1.755,5.736-3.801,7.806c-2.424,2.438-5.733,3.952-9.43,3.952c-3.691,0-7.015-1.514-9.445-3.952
			c-2.415-2.457-3.904-5.803-3.904-9.539C13.866,66.167,15.164,63.018,17.297,60.618z"/>
		<path fill="#FFFFFF" d="M96.651,83.625l-3.915-3.546c-2.308,1.909-5.246,3.06-8.467,3.06c-3.691,0-7-1.514-9.426-3.952
			c-2.433-2.457-3.917-5.803-3.917-9.539c0-2.72,0.795-5.24,2.165-7.359l-3.93-3.559c-2.178,3.077-3.467,6.843-3.467,10.918
			c0,2.824,0.635,5.493,1.74,7.897c0.763,1.66,1.756,3.184,2.942,4.539c0.345,0.394,0.703,0.775,1.079,1.139
			c2.201,2.126,4.916,3.702,7.94,4.533c0.405,0.111,0.809,0.225,1.225,0.309c1.18,0.238,2.399,0.367,3.649,0.367
			C89.032,88.431,93.362,86.603,96.651,83.625z"/>
		<path fill="#FFFFFF" d="M64.646,54.642l2.94,2.662l1.574,1.426l3.93,3.559l8.568,7.759l2.506,2.269l8.571,7.762l3.915,3.546
			c-3.289,2.978-7.619,4.806-12.382,4.806c-1.25,0-2.469-0.129-3.649-0.367l-18.286,21.958
			c19.016-1.923,35.594-12.061,46.168-26.799h-8.841l-1.257-1.139h10.122v1.105c1.3-1.814,2.508-3.697,3.618-5.644h-11.03
			c-0.742,1.611-1.698,3.097-2.84,4.422l-3.892-3.524l-7.965-7.213l-4.812-4.358l-7.085-6.416l-3.902-3.533l-1.963-1.777
			l-2.967-2.687L7.934,0.156L6.377,1.875L64.646,54.642z"/>
	</g>
</g>
</svg>
