<?xml version="1.0" encoding="utf-8"?>
<!-- Generator: Adobe Illustrator 17.0.2, SVG Export Plug-In . SVG Version: 6.00 Build 0)  -->
<!DOCTYPE svg PUBLIC "-//W3C//DTD SVG 1.1//EN" "http://www.w3.org/Graphics/SVG/1.1/DTD/svg11.dtd">
<svg version="1.1" id="Calque_1" xmlns="http://www.w3.org/2000/svg" xmlns:xlink="http://www.w3.org/1999/xlink" x="0px" y="0px"
	 width="28.589px" height="104.188px" viewBox="0 0 28.589 104.188" enable-background="new 0 0 28.589 104.188"
	 xml:space="preserve">
<path fill="#FFFFFF" d="M940.355,5997h-12.12c-4.529,0-8.234,3.705-8.234,8.234v58.629c0,4.529,3.705,8.234,8.234,8.234h3.965
	v29.091h4.19v-29.091h3.965c4.529,0,8.234-3.706,8.234-8.234v-58.629C948.589,6000.705,944.884,5997,940.355,5997z
	 M934.295,6063.145c-4.527,0-8.196-3.669-8.196-8.196c0-4.527,3.67-8.196,8.196-8.196c4.526,0,8.196,3.669,8.196,8.196
	C942.49,6059.476,938.821,6063.145,934.295,6063.145z M934.295,6041.309c-4.527,0-8.196-3.669-8.196-8.196
	c0-4.527,3.67-8.196,8.196-8.196c4.526,0,8.196,3.669,8.196,8.196C942.49,6037.64,938.821,6041.309,934.295,6041.309z
	 M934.295,6020.438c-4.527,0-8.196-3.669-8.196-8.196s3.67-8.196,8.196-8.196c4.526,0,8.196,3.669,8.196,8.196
	S938.821,6020.438,934.295,6020.438z"/>
<path fill="#FFFFFF" d="M20.355,0H8.234C3.705,0,0,3.705,0,8.234v58.629c0,4.529,3.705,8.234,8.234,8.234h3.965v29.091h4.19V75.098
	h3.965c4.529,0,8.234-3.706,8.234-8.234V8.234C28.589,3.705,24.884,0,20.355,0z M14.295,66.145c-4.527,0-8.196-3.669-8.196-8.196
	c0-4.527,3.67-8.196,8.196-8.196c4.526,0,8.196,3.669,8.196,8.196C22.49,62.476,18.821,66.145,14.295,66.145z M14.295,44.309
	c-4.527,0-8.196-3.669-8.196-8.196c0-4.527,3.67-8.196,8.196-8.196c4.526,0,8.196,3.669,8.196,8.196
	C22.49,40.64,18.821,44.309,14.295,44.309z M14.295,23.438c-4.527,0-8.196-3.669-8.196-8.196s3.67-8.196,8.196-8.196
	c4.526,0,8.196,3.669,8.196,8.196S18.821,23.438,14.295,23.438z"/>
</svg>
