<?xml version="1.0" encoding="utf-8"?>
<!-- Generator: Adobe Illustrator 17.0.2, SVG Export Plug-In . SVG Version: 6.00 Build 0)  -->
<!DOCTYPE svg PUBLIC "-//W3C//DTD SVG 1.1//EN" "http://www.w3.org/Graphics/SVG/1.1/DTD/svg11.dtd">
<svg version="1.1" id="Calque_1" xmlns="http://www.w3.org/2000/svg" xmlns:xlink="http://www.w3.org/1999/xlink" x="0px" y="0px"
	 width="95.74px" height="91.71px" viewBox="0 0 95.74 91.71" enable-background="new 0 0 95.74 91.71" xml:space="preserve">
<path id="XMLID_18_" fill="#FFFFFF" d="M28.808,56.517c-2.882,0-5.467,0-6.935,0c-0.682,0-1.11,0.114-1.739,1.14
	c-0.436,0.711-2.095,4.589-2.892,5.968c-0.134,0.231,4.698,0.541,10.747,0.838L28.808,56.517z M45.009,58.81
	c-1.472-1.529-2.424-2.293-4.837-2.293c-2.058,0-4.843,0-7.666,0l-0.836,8.118c6.302,0.284,13.075,0.536,16.717,0.667l1.348-1.381
	C48.37,62.42,46.278,60.134,45.009,58.81z M72.402,78.513l-2.622,6.3l-1.053,0.349c-0.868,3.746-4.224,6.549-8.23,6.549
	c-3.492,0-6.496-2.128-7.783-5.155H25.356c-1.288,3.027-4.29,5.155-7.782,5.155c-4.109,0-7.539-2.947-8.296-6.839L8.193,84.81
	c-3.248,0-4.196-4.91-4.461-7.171c0.192-0.177,0.867-1.04,0.917-1.104L5.097,66.1l1.38-1.428l5.658-8.502l-0.829-1.877h28.616
	c3.213,0,4.088,0.977,5.677,2.156l9.306,8.342l12.148,3.795C70.595,69.649,72.402,78.513,72.402,78.513z M21.786,83.255
	c0-2.323-1.89-4.212-4.212-4.212c-2.324,0-4.214,1.89-4.214,4.212c0,2.324,1.891,4.214,4.214,4.214
	C19.896,87.469,21.786,85.578,21.786,83.255z M64.71,83.255c0-2.323-1.891-4.212-4.214-4.212c-2.324,0-4.214,1.89-4.214,4.212
	c0,2.324,1.89,4.214,4.214,4.214C62.82,87.469,64.71,85.578,64.71,83.255z"/>
<g>
	<path fill="#FFFFFF" d="M55.619,34.327c-1.586,1.593-3.759,2.583-6.176,2.583c-2.412,0-4.575-0.99-6.162-2.583
		c-1.59-1.606-2.56-3.793-2.56-6.236c0-2.439,0.97-4.639,2.56-6.242c0.599-0.611,1.299-1.134,2.057-1.545l2.686,6.786
		c-0.202,0.276-0.313,0.629-0.313,1.001c0,0.972,0.776,1.752,1.732,1.752c0.968,0,1.744-0.78,1.744-1.752
		c0-0.842-0.589-1.542-1.361-1.716l-2.684-6.794c0.732-0.21,1.507-0.315,2.301-0.315c2.416,0,4.589,0.987,6.176,2.584
		c1.576,1.602,2.552,3.802,2.552,6.242C58.171,30.534,57.196,32.721,55.619,34.327 M23.456,23.515
		c-0.563-1.504-1.397-2.873-2.44-4.048l1.105-1.046l1.92,5.204C23.845,23.582,23.643,23.548,23.456,23.515 M18.314,34.327
		c-1.584,1.593-3.747,2.583-6.164,2.583c-2.412,0-4.585-0.99-6.174-2.583c-1.578-1.606-2.552-3.793-2.552-6.236
		c0-2.276,0.848-4.334,2.243-5.902c2.662,2.442,6.507,5.947,6.507,5.947l8.624,1.088C20.548,31.207,19.651,32.975,18.314,34.327
		 M49.444,15.806c-1.239,0-2.446,0.19-3.578,0.55l-0.844-2.145c1.473-0.446,3.051-1.041,4.715-2.137C54.143,9.687,54.428,0,54.428,0
		s-8.542,3.407-9.771,3.876l-0.07-0.192C44.26,2.587,43.262,1.88,42.174,1.88c-0.233,0-0.483,0.036-0.712,0.104l-3.081,0.922
		c-0.511,0.15-0.8,0.7-0.657,1.215c0.156,0.524,0.698,0.82,1.207,0.661l3.081-0.915c0.06-0.018,0.108-0.024,0.162-0.024
		c0.251,0,0.493,0.163,0.571,0.423v0.02l0.231,0.686L35.205,21.24c-0.694,1.376-1.333,2.24-1.973,2.762
		c-0.708,0.577-1.421,0.76-2.333,0.768c-0.357,0-0.734-0.036-1.147-0.078c-0.573-0.074-1.977-0.34-3.486-0.629l-4.553-12.375
		l3.66-0.513c0,0,0.082-0.224-0.044-0.976C25.2,9.44,24.489,9.264,23.877,9.354c-0.613,0.086-4.921,0.659-5.579,0.748
		c-0.657,0.097-1.139,0.586-1.054,1.031c0.086,0.436,0.217,1.15,0.217,1.15l2.285-0.324l1.654,4.508l-1.768,1.674
		c-2.179-1.806-4.964-2.883-8.009-2.883c-3.56,0-6.778,1.49-9.069,3.879c-0.018,0.029,0.216,0.27,0.631,0.672
		C1.207,21.989,0,24.891,0,28.092c0.01,6.774,5.439,12.278,12.15,12.278c6.172,0,11.27-4.664,12.038-10.707
		c0.792,0.113,1.51,0.209,2.181,0.269l0.2,0.557c0.148,0.393,0.515,0.639,0.904,0.639c0.12,0,0.231-0.017,0.343-0.062
		c0.415-0.156,0.657-0.577,0.625-1.001h0.076h0.106c2.201,0,3.861-0.614,5.352-2.034c1.106-1.034,1.958-2.556,2.664-4.008
		c0.233-0.499,0.457-0.998,0.656-1.468c0.619-1.264,2.113-4.3,2.492-5.03c0.776-1.528,1.959-2.209,3.38-2.722l0.898,2.275
		c-4.003,2.009-6.762,6.184-6.762,11.015c0,6.774,5.433,12.278,12.142,12.278c6.711,0,12.15-5.503,12.15-12.278
		C61.593,21.307,56.154,15.806,49.444,15.806"/>
</g>
<path fill="#FFFFFF" d="M83.037,59.454c0.149-0.087,0.346-0.236,0.591-0.447L94.504,48.13c0,0,0.819-0.845,0.985-1.117
	c0.167-0.271,0.251-0.599,0.251-0.985c0-0.402-0.092-0.753-0.277-1.05c-0.184-0.298-0.959-1.05-0.959-1.05L83.627,33.075
	c-0.209-0.21-0.39-0.364-0.538-0.46c-0.149-0.096-0.364-0.145-0.644-0.144l-5.912-0.001c-0.194,0-0.346,0.079-0.46,0.237
	c-0.115,0.157-0.171,0.332-0.171,0.525c0,0.263,0.117,0.408,0.316,0.631c0,0,7.905,7.82,8.289,8.204
	c0.356,0.357,0.201,0.688-0.26,0.688h-17.73c-0.315,0-0.575,0.103-0.78,0.307c-0.204,0.204-0.306,0.463-0.306,0.779v4.43
	c0,0.298,0.106,0.544,0.32,0.739c0.214,0.195,0.468,0.292,0.766,0.292h17.73c0.433,0,0.577,0.344,0.26,0.661
	c-0.317,0.318-8.289,8.232-8.289,8.232c-0.2,0.219-0.316,0.395-0.316,0.656c0,0.176,0.061,0.343,0.184,0.5
	c0.122,0.158,0.271,0.236,0.447,0.236h5.912C82.69,59.585,82.888,59.542,83.037,59.454"/>
</svg>
