<?xml version="1.0" encoding="utf-8"?>
<!-- Generator: Adobe Illustrator 17.0.2, SVG Export Plug-In . SVG Version: 6.00 Build 0)  -->
<!DOCTYPE svg PUBLIC "-//W3C//DTD SVG 1.1//EN" "http://www.w3.org/Graphics/SVG/1.1/DTD/svg11.dtd">
<svg version="1.1" id="Calque_1" xmlns="http://www.w3.org/2000/svg" xmlns:xlink="http://www.w3.org/1999/xlink" x="0px" y="0px"
	 width="193.578px" height="49.207px" viewBox="0 0 193.578 49.207" enable-background="new 0 0 193.578 49.207"
	 xml:space="preserve">
<path fill="#FFFFFF" d="M193.567,26.623L193.567,26.623c-0.31-7.192-7.051-15.635-14.243-15.325L75.99,21.596
	c-1.77-4.564-5.446-8.228-10.101-9.925L42.908,0.342c-2.072-0.905-4.507,0.05-5.412,2.122s0.05,4.507,2.122,5.412l5.675,2.766
	L12.822,7.807c-2.257-0.134-4.212,1.603-4.346,3.86v0c-0.134,2.257,1.603,4.212,3.86,4.346l23.43,2.22
	c-0.207,0.336-0.395,0.685-0.579,1.037L4.353,17.442c-2.257-0.134-4.212,1.603-4.346,3.86c-0.134,2.257,1.603,4.212,3.86,4.346
	l29.33,1.739l-0.112,1.895L9.942,27.91c-2.257-0.134-4.212,1.603-4.346,3.86v0c-0.134,2.257,1.603,4.212,3.86,4.346L34.1,37.576
	c0.256,0.673,0.559,1.323,0.896,1.955l-18.171-1.077c-2.257-0.134-4.212,1.603-4.346,3.86c-0.134,2.257,1.603,4.212,3.86,4.346
	l32.703,1.938c0,0,0,0,0,0l9.761,0.579c6.072,0.36,11.604-2.552,14.91-7.187c0.507,0.01,1.017,0.008,1.531-0.015l105.501,2.286
	C187.938,43.951,193.877,33.815,193.567,26.623z"/>
</svg>
